<svg height="512pt" viewBox="0 0 512 512" width="512pt" xmlns="http://www.w3.org/2000/svg"><path d="m437.019531 74.980469c-48.351562-48.351563-112.640625-74.980469-181.019531-74.980469s-132.667969 26.628906-181.019531 74.980469c-48.351563 48.351562-74.980469 112.640625-74.980469 181.019531s26.628906 132.667969 74.980469 181.019531c48.351562 48.351563 112.640625 74.980469 181.019531 74.980469s132.667969-26.628906 181.019531-74.980469c48.351563-48.351562 74.980469-112.640625 74.980469-181.019531s-26.628906-132.667969-74.980469-181.019531zm-181.019531 407.019531c-124.617188 0-226-101.382812-226-226s101.382812-226 226-226 226 101.382812 226 226-101.382812 226-226 226zm0 0"/><path d="m371.992188 146.070312-97.5 56.289063 97.5 56.292969 15-25.980469-52.5-30.3125 52.5-30.308594zm0 0"/><path d="m139.15625 258.652344 97.5-56.292969-97.5-56.289063-15 25.980469 52.5 30.308594-52.5 30.3125zm0 0"/><path d="m335.160156 295h-158.320312c-27.292969 0-49.5 22.207031-49.5 49.5s22.207031 49.5 49.5 49.5h158.320312c27.292969 0 49.5-22.207031 49.5-49.5s-22.207031-49.5-49.5-49.5zm0 69h-158.320312c-10.75 0-19.5-8.746094-19.5-19.5s8.75-19.5 19.5-19.5h158.320312c10.75 0 19.5 8.746094 19.5 19.5s-8.75 19.5-19.5 19.5zm0 0"/></svg>