<svg height="512pt" viewBox="0 0 512 512" width="512pt" xmlns="http://www.w3.org/2000/svg"><path d="m256 384.808594c-51.761719 0-98.699219-32.574219-116.796875-81.054688l-28.105469 10.492188c10.910156 29.226562 30.195313 54.226562 55.769532 72.296875 26.167968 18.492187 56.988281 28.265625 89.132812 28.265625s62.96875-9.773438 89.136719-28.265625c25.574219-18.070313 44.855469-43.070313 55.765625-72.296875l-28.105469-10.492188c-18.097656 48.480469-65.035156 81.054688-116.796875 81.054688zm0 0"/><path d="m437.019531 74.980469c-48.351562-48.351563-112.640625-74.980469-181.019531-74.980469s-132.667969 26.628906-181.019531 74.980469c-48.351563 48.351562-74.980469 112.640625-74.980469 181.019531s26.628906 132.667969 74.980469 181.019531c48.351562 48.351563 112.640625 74.980469 181.019531 74.980469s132.667969-26.628906 181.019531-74.980469c48.351563-48.351562 74.980469-112.640625 74.980469-181.019531s-26.628906-132.667969-74.980469-181.019531zm-181.019531 407.019531c-124.617188 0-226-101.382812-226-226s101.382812-226 226-226 226 101.382812 226 226-101.382812 226-226 226zm0 0"/><path d="m165.609375 251.859375c28.269531 0 51.265625-22.996094 51.265625-51.261719 0-28.269531-22.996094-51.265625-51.265625-51.265625-28.265625 0-51.261719 22.996094-51.261719 51.265625 0 28.265625 22.996094 51.261719 51.261719 51.261719zm0-72.527344c11.726563 0 21.265625 9.539063 21.265625 21.265625 0 11.722656-9.539062 21.261719-21.265625 21.261719-11.722656 0-21.261719-9.539063-21.261719-21.261719 0-11.726562 9.539063-21.265625 21.261719-21.265625zm0 0"/><path d="m346.390625 251.859375c28.265625 0 51.261719-22.996094 51.261719-51.261719 0-28.269531-22.996094-51.265625-51.261719-51.265625-28.269531 0-51.265625 22.996094-51.265625 51.265625 0 28.265625 22.996094 51.261719 51.265625 51.261719zm0-72.527344c11.722656 0 21.261719 9.539063 21.261719 21.265625 0 11.722656-9.539063 21.261719-21.261719 21.261719-11.726563 0-21.265625-9.539063-21.265625-21.261719 0-11.726562 9.539062-21.265625 21.265625-21.265625zm0 0"/></svg>