<svg height="512pt" viewBox="0 0 512 512" width="512pt" xmlns="http://www.w3.org/2000/svg"><path d="m197.53125 210.667969h30c0-30.695313-24.972656-55.667969-55.667969-55.667969-30.695312 0-55.667969 24.972656-55.667969 55.667969h30c0-14.152344 11.515626-25.667969 25.667969-25.667969 14.152344 0 25.667969 11.515625 25.667969 25.667969zm0 0"/><path d="m395.804688 210.667969c0-30.695313-24.972657-55.667969-55.667969-55.667969-30.695313 0-55.667969 24.972656-55.667969 55.667969h30c0-14.152344 11.515625-25.667969 25.667969-25.667969 14.152343 0 25.667969 11.515625 25.667969 25.667969zm0 0"/><path d="m437.019531 74.980469c-48.351562-48.351563-112.640625-74.980469-181.019531-74.980469s-132.667969 26.628906-181.019531 74.980469c-48.351563 48.351562-74.980469 112.640625-74.980469 181.019531s26.628906 132.667969 74.980469 181.019531c48.351562 48.351563 112.640625 74.980469 181.019531 74.980469s132.667969-26.628906 181.019531-74.980469c48.351563-48.351562 74.980469-112.640625 74.980469-181.019531s-26.628906-132.667969-74.980469-181.019531zm-181.019531 407.019531c-124.617188 0-226-101.382812-226-226s101.382812-226 226-226 226 101.382812 226 226-101.382812 226-226 226zm0 0"/><path d="m256 337.710938c-36.023438 0-65.332031-29.3125-65.332031-65.335938h-30c0 52.566406 42.765625 95.335938 95.332031 95.335938s95.332031-42.769532 95.332031-95.335938h-30c0 36.027344-29.308593 65.335938-65.332031 65.335938zm0 0"/><path d="m94.730469 228.667969c-26.101563 0-47.335938 21.234375-47.335938 47.332031s21.234375 47.332031 47.335938 47.332031c26.097656 0 47.332031-21.230469 47.332031-47.332031s-21.234375-47.332031-47.332031-47.332031zm0 64.664062c-9.558594 0-17.335938-7.773437-17.335938-17.332031s7.777344-17.332031 17.335938-17.332031c9.554687 0 17.332031 7.773437 17.332031 17.332031s-7.777344 17.332031-17.332031 17.332031zm0 0"/><path d="m413.136719 228.667969c-26.101563 0-47.332031 21.234375-47.332031 47.332031s21.230468 47.332031 47.332031 47.332031c26.097656 0 47.332031-21.230469 47.332031-47.332031s-21.234375-47.332031-47.332031-47.332031zm0 64.664062c-9.558594 0-17.332031-7.773437-17.332031-17.332031s7.773437-17.332031 17.332031-17.332031c9.558593 0 17.332031 7.773437 17.332031 17.332031s-7.777344 17.332031-17.332031 17.332031zm0 0"/></svg>