<svg height="512pt" viewBox="0 0 512 512" width="512pt" xmlns="http://www.w3.org/2000/svg"><path d="m386.992188 232.671875-52.5-30.3125 52.5-30.308594-15-25.980469-97.5 56.289063 97.5 56.292969zm0 0"/><path d="m139.15625 258.652344 97.5-56.292969-97.5-56.289063-15 25.980469 52.5 30.308594-52.5 30.3125zm0 0"/><path d="m437.019531 74.980469c-48.351562-48.351563-112.640625-74.980469-181.019531-74.980469s-132.667969 26.628906-181.019531 74.980469c-48.351563 48.351562-74.980469 112.640625-74.980469 181.019531s26.628906 132.667969 74.980469 181.019531c48.351562 48.351563 112.640625 74.980469 181.019531 74.980469s132.667969-26.628906 181.019531-74.980469c48.351563-48.351562 74.980469-112.640625 74.980469-181.019531s-26.628906-132.667969-74.980469-181.019531zm-181.019531 407.019531c-124.617188 0-226-101.382812-226-226s101.382812-226 226-226 226 101.382812 226 226-101.382812 226-226 226zm0 0"/><path d="m347.773438 329.953125-45.894532-34.441406-45.886718 34.441406-45.886719-34.441406-45.886719 34.441406-36.878906-27.683594-18.011719 23.992188 54.890625 41.203125 45.886719-34.445313 45.886719 34.445313 45.890624-34.445313 45.890626 34.445313 54.898437-41.203125-18.007813-23.992188zm0 0"/></svg>