<svg height="512pt" viewBox="0 0 512 512" width="512pt" xmlns="http://www.w3.org/2000/svg"><path d="m165.609375 138.332031c-28.265625 0-51.261719 22.996094-51.261719 51.265625 0 28.265625 22.996094 51.261719 51.261719 51.261719 28.269531 0 51.265625-22.996094 51.265625-51.261719 0-28.269531-22.996094-51.265625-51.265625-51.265625zm0 72.527344c-11.722656 0-21.261719-9.539063-21.261719-21.261719 0-11.726562 9.539063-21.265625 21.261719-21.265625 11.726563 0 21.265625 9.539063 21.265625 21.265625 0 11.722656-9.539062 21.261719-21.265625 21.261719zm0 0"/><path d="m346.390625 138.332031c-28.269531 0-51.265625 22.996094-51.265625 51.265625 0 28.265625 22.996094 51.261719 51.265625 51.261719 28.265625 0 51.261719-22.996094 51.261719-51.261719 0-28.269531-22.996094-51.265625-51.261719-51.265625zm0 72.527344c-11.726563 0-21.265625-9.539063-21.265625-21.261719 0-11.726562 9.539062-21.265625 21.265625-21.265625 11.722656 0 21.261719 9.539063 21.261719 21.265625 0 11.722656-9.539063 21.261719-21.261719 21.261719zm0 0"/><path d="m437.019531 74.980469c-48.351562-48.351563-112.640625-74.980469-181.019531-74.980469s-132.667969 26.628906-181.019531 74.980469c-48.351563 48.351562-74.980469 112.640625-74.980469 181.019531s26.628906 132.667969 74.980469 181.019531c48.351562 48.351563 112.640625 74.980469 181.019531 74.980469s132.667969-26.628906 181.019531-74.980469c48.351563-48.351562 74.980469-112.640625 74.980469-181.019531s-26.628906-132.667969-74.980469-181.019531zm-181.019531 407.019531c-124.617188 0-226-101.382812-226-226s101.382812-226 226-226 226 101.382812 226 226-101.382812 226-226 226zm0 0"/></svg>